<svg xmlns="http://www.w3.org/2000/svg" viewBox="0 0 64 64" width="64" height="64">
  <rect width="64" height="64" rx="16" fill="#0D0F17" />
  <rect width="60" height="60" x="2" y="2" rx="14" fill="none" stroke="#FF5722" stroke-width="2" opacity="0.6" />
  <path d="M12 40 L12 24 C12 21.8 13.8 20 16 20 L34 20 L42 28 L42 40 Z" fill="none" stroke="#FF5722" stroke-width="3.5" stroke-linejoin="round" stroke-linecap="round"/>
  <circle cx="20" cy="40" r="4.5" fill="#0D0F17" stroke="#FF5722" stroke-width="3" />
  <circle cx="36" cy="40" r="4.5" fill="#0D0F17" stroke="#FF5722" stroke-width="3" />
  <path d="M34 20 L34 30 L42 30" fill="none" stroke="#FF5722" stroke-width="2.5" stroke-linejoin="round" />
  <path d="M26 14 C26 11.2 28.2 9 31 9 C33.8 9 36 11.2 36 14 C36 18 31 22 31 22 C31 22 26 18 26 14 Z" fill="#FF5722" />
  <circle cx="31" cy="13.5" r="1.8" fill="#0D0F17" />
</svg>